<svg xmlns="http://www.w3.org/2000/svg" viewBox="0 0 100 40" fill="currentColor">
  <!-- IBM 8-bar logo -->
  <!-- Letter I -->
  <rect x="2" y="0" width="18" height="4"/>
  <rect x="2" y="5" width="18" height="4"/>
  <rect x="7" y="10" width="8" height="4"/>
  <rect x="7" y="15" width="8" height="4"/>
  <rect x="7" y="20" width="8" height="4"/>
  <rect x="7" y="25" width="8" height="4"/>
  <rect x="2" y="30" width="18" height="4"/>
  <rect x="2" y="35" width="18" height="4"/>
  
  <!-- Letter B -->
  <rect x="24" y="0" width="26" height="4"/>
  <rect x="24" y="5" width="26" height="4"/>
  <rect x="29" y="10" width="8" height="4"/>
  <rect x="42" y="10" width="6" height="4"/>
  <rect x="29" y="15" width="19" height="4"/>
  <rect x="29" y="20" width="19" height="4"/>
  <rect x="29" y="25" width="8" height="4"/>
  <rect x="42" y="25" width="6" height="4"/>
  <rect x="24" y="30" width="26" height="4"/>
  <rect x="24" y="35" width="26" height="4"/>
  
  <!-- Letter M -->
  <rect x="54" y="0" width="8" height="4"/>
  <rect x="88" y="0" width="8" height="4"/>
  <rect x="54" y="5" width="10" height="4"/>
  <rect x="86" y="5" width="10" height="4"/>
  <rect x="59" y="10" width="8" height="4"/>
  <rect x="83" y="10" width="8" height="4"/>
  <rect x="59" y="15" width="10" height="4"/>
  <rect x="81" y="15" width="10" height="4"/>
  <rect x="64" y="20" width="8" height="4"/>
  <rect x="78" y="20" width="8" height="4"/>
  <rect x="64" y="25" width="8" height="4"/>
  <rect x="78" y="25" width="8" height="4"/>
  <rect x="54" y="30" width="8" height="4"/>
  <rect x="68" y="30" width="14" height="4"/>
  <rect x="88" y="30" width="8" height="4"/>
  <rect x="54" y="35" width="8" height="4"/>
  <rect x="68" y="35" width="14" height="4"/>
  <rect x="88" y="35" width="8" height="4"/>
</svg>

